# This file uses centimeters as units for non-parametric coordinates.

mtllib Wings Sculpt_Part 1.mtl
g default
v 7.416416 16.303087 -1.112251
v 7.146979 16.544798 -0.779913
v 7.657263 16.441967 -0.564286
v 8.182466 15.769744 -1.196245
v 9.781320 14.531913 -1.050333
v 8.377525 15.946413 -0.599062
v 8.022710 15.546723 -1.154758
v 9.887047 14.307361 -1.014879
v 8.271631 15.785249 -0.481724
v 7.192421 16.177986 -1.067280
v 6.859098 16.500738 -0.675866
v 7.455888 16.366369 -0.423704
v 8.076978 15.616961 -1.224092
v 9.983658 14.299674 -1.045525
v 8.330757 15.857339 -0.501306
v 7.460685 16.465240 -0.433426
v 6.832469 16.612272 -0.703227
v 7.195854 16.261580 -1.119992
v 7.837910 16.060465 -1.161202
v 8.586597 15.609497 -0.973639
v 8.049706 16.212368 -0.592213
v 7.938142 16.188194 -0.483990
v 7.904037 16.101564 -0.468537
v 8.508331 15.479801 -0.907910
v 7.653917 15.893703 -1.117984
v 7.685556 15.973001 -1.180071
v 5.138028 16.307112 -3.633054
v 5.173378 16.506006 -3.321970
v 5.553155 16.348171 -3.430306
v 5.463525 15.810809 -4.018011
v 6.276323 14.665982 -4.626627
v 5.880790 15.883612 -3.766518
v 5.360074 15.665637 -3.908080
v 6.322201 14.483304 -4.645050
v 5.852555 15.772846 -3.640157
v 5.013062 16.243120 -3.495410
v 5.050853 16.507765 -3.123276
v 5.493027 16.312733 -3.249334
v 5.368489 15.713734 -3.977677
v 6.362178 14.465857 -4.708171
v 5.887392 15.819058 -3.682846
v 5.505066 16.385765 -3.261910
v 5.038342 16.595430 -3.132040
v 5.001981 16.307266 -3.531935
v 5.322959 16.071808 -3.848838
v 5.777608 15.624777 -4.069640
v 5.733115 16.125429 -3.620659
v 5.716537 16.117329 -3.503366
v 5.692084 16.057112 -3.474201
v 5.745394 15.536169 -3.988112
v 5.214292 15.971541 -3.729104
v 5.214394 16.029097 -3.784214
v 3.156286 16.297228 -3.483236
v 3.368618 16.322365 -3.297798
v 3.459216 16.122204 -3.536630
v 2.974590 15.982420 -3.882312
v 2.682714 15.157507 -4.655434
v 3.309280 15.812879 -3.905143
v 2.893887 15.898006 -3.773229
v 2.619344 15.033312 -4.693017
v 3.288507 15.719091 -3.817528
v 3.109802 16.263004 -3.344762
v 3.373305 16.311214 -3.120085
v 3.473823 16.071157 -3.398479
v 2.895899 15.944139 -3.818793
v 2.610919 15.026012 -4.750490
v 3.312570 15.747424 -3.857891
v 3.508165 16.115744 -3.409185
v 3.402668 16.372368 -3.117200
v 3.120041 16.316740 -3.360618
v 3.074733 16.146511 -3.706601
v 3.037840 15.771968 -4.057945
v 3.389297 15.973986 -3.741521
v 3.416991 15.942330 -3.661277
v 3.387519 15.905431 -3.634361
v 3.009566 15.705695 -3.995866
v 3.014553 16.089060 -3.587634
v 3.021362 16.139950 -3.620203
v 1.778426 15.221551 -2.019901
v 1.891886 15.274720 -2.091264
v 1.805201 15.176912 -2.192534
v 1.591580 15.019952 -2.028877
v 1.256758 14.533582 -2.101257
v 1.636540 14.984263 -2.211574
v 1.642700 14.973604 -1.985662
v 1.242331 14.462056 -2.091836
v 1.685317 14.940726 -2.200937
v 1.843321 15.206149 -1.982570
v 1.979900 15.280084 -2.069802
v 1.878865 15.162073 -2.186269
v 1.616517 14.993703 -1.987354
v 1.214042 14.454036 -2.096847
v 1.665971 14.955636 -2.214538
v 1.873675 15.188036 -2.198555
v 1.979187 15.314151 -2.075771
v 1.831873 15.232809 -1.983034
v 1.673919 15.123975 -2.031329
v 1.533279 14.916824 -2.109547
v 1.710849 15.083266 -2.206562
v 1.756139 15.076426 -2.212271
v 1.769087 15.055816 -2.199060
v 1.566188 14.884122 -2.095566
v 1.729826 15.094222 -1.993121
v 1.710101 15.118058 -1.994668
v 7.606502 17.162169 2.448132
v 6.827842 17.447245 2.389530
v 7.235207 17.810255 3.171039
v 8.796209 16.977524 3.479673
v 10.952572 16.567974 6.114746
v 8.301830 17.665964 4.187069
v 8.622605 16.554348 3.584952
v 11.109296 16.351170 6.443863
v 8.088827 17.409178 4.372840
v 7.320986 16.828074 2.416214
v 6.372869 17.204977 2.300044
v 6.853606 17.609556 3.226362
v 8.745970 16.664097 3.489878
v 11.263971 16.402693 6.498525
v 8.161058 17.549000 4.338115
v 6.840391 17.748697 3.132678
v 6.337588 17.328653 2.147628
v 7.359566 16.924126 2.284806
v 8.248737 17.131218 2.968034
v 9.083969 17.178057 4.227775
v 7.814266 17.784569 3.678840
v 7.563024 17.712822 3.729216
v 7.530347 17.570391 3.793504
v 8.953593 16.963341 4.349961
v 8.026559 16.769184 3.005126
v 8.111405 16.877174 2.890975
vt 0.375000 0.000000
vt 0.500000 0.000000
vt 0.625000 0.000000
vt 0.375000 0.250000
vt 0.500000 0.250000
vt 0.625000 0.250000
vt 0.375000 0.500000
vt 0.500000 0.500000
vt 0.625000 0.500000
vt 0.375000 0.750000
vt 0.500000 0.750000
vt 0.625000 0.750000
vt 0.375000 1.000000
vt 0.500000 1.000000
vt 0.625000 1.000000
vt 0.875000 0.000000
vt 0.875000 0.250000
vt 0.125000 0.000000
vt 0.125000 0.250000
vt 0.232644 0.250000
vt 0.375000 0.392356
vt 0.500000 0.392356
vt 0.625000 0.392356
vt 0.767356 0.250000
vt 0.625000 0.857644
vt 0.767356 0.000000
vt 0.500000 0.857644
vt 0.232644 0.000000
vt 0.375000 0.857644
vt 0.375000 0.129620
vt 0.500000 0.129620
vt 0.625000 0.129620
vt 0.767356 0.129620
vt 0.625000 0.620380
vt 0.875000 0.129620
vt 0.500000 0.620380
vt 0.125000 0.129620
vt 0.375000 0.620380
vt 0.232644 0.129620
vt 0.375000 0.129620
vt 0.500000 0.129620
vt 0.500000 0.250000
vt 0.375000 0.250000
vt 0.625000 0.129620
vt 0.625000 0.250000
vt 0.375000 0.392356
vt 0.500000 0.392356
vt 0.500000 0.500000
vt 0.375000 0.500000
vt 0.625000 0.392356
vt 0.625000 0.500000
vt 0.500000 0.620380
vt 0.375000 0.620380
vt 0.625000 0.620380
vt 0.375000 0.750000
vt 0.500000 0.750000
vt 0.500000 0.857644
vt 0.375000 0.857644
vt 0.625000 0.750000
vt 0.625000 0.857644
vt 0.767356 0.250000
vt 0.767356 0.129620
vt 0.875000 0.129620
vt 0.875000 0.250000
vt 0.125000 0.129620
vt 0.232644 0.129620
vt 0.232644 0.250000
vt 0.125000 0.250000
vt 0.625000 1.000000
vt 0.500000 1.000000
vt 0.375000 1.000000
vt 0.375000 0.000000
vt 0.500000 0.000000
vt 0.625000 0.000000
vt 0.767356 0.000000
vt 0.875000 0.000000
vt 0.125000 0.000000
vt 0.232644 0.000000
vt 0.375000 0.129620
vt 0.500000 0.129620
vt 0.500000 0.250000
vt 0.375000 0.250000
vt 0.625000 0.129620
vt 0.625000 0.250000
vt 0.375000 0.392356
vt 0.500000 0.392356
vt 0.500000 0.500000
vt 0.375000 0.500000
vt 0.625000 0.392356
vt 0.625000 0.500000
vt 0.500000 0.620380
vt 0.375000 0.620380
vt 0.625000 0.620380
vt 0.375000 0.750000
vt 0.500000 0.750000
vt 0.500000 0.857644
vt 0.375000 0.857644
vt 0.625000 0.750000
vt 0.625000 0.857644
vt 0.767356 0.250000
vt 0.767356 0.129620
vt 0.875000 0.129620
vt 0.875000 0.250000
vt 0.125000 0.129620
vt 0.232644 0.129620
vt 0.232644 0.250000
vt 0.125000 0.250000
vt 0.625000 1.000000
vt 0.500000 1.000000
vt 0.375000 1.000000
vt 0.375000 0.000000
vt 0.500000 0.000000
vt 0.625000 0.000000
vt 0.767356 0.000000
vt 0.875000 0.000000
vt 0.125000 0.000000
vt 0.232644 0.000000
vt 0.375000 0.129620
vt 0.500000 0.129620
vt 0.500000 0.250000
vt 0.375000 0.250000
vt 0.625000 0.129620
vt 0.625000 0.250000
vt 0.375000 0.392356
vt 0.500000 0.392356
vt 0.500000 0.500000
vt 0.375000 0.500000
vt 0.625000 0.392356
vt 0.625000 0.500000
vt 0.500000 0.620380
vt 0.375000 0.620380
vt 0.625000 0.620380
vt 0.375000 0.750000
vt 0.500000 0.750000
vt 0.500000 0.857644
vt 0.375000 0.857644
vt 0.625000 0.750000
vt 0.625000 0.857644
vt 0.767356 0.250000
vt 0.767356 0.129620
vt 0.875000 0.129620
vt 0.875000 0.250000
vt 0.125000 0.129620
vt 0.232644 0.129620
vt 0.232644 0.250000
vt 0.125000 0.250000
vt 0.625000 1.000000
vt 0.500000 1.000000
vt 0.375000 1.000000
vt 0.375000 0.000000
vt 0.500000 0.000000
vt 0.625000 0.000000
vt 0.767356 0.000000
vt 0.875000 0.000000
vt 0.125000 0.000000
vt 0.232644 0.000000
vt 0.375000 0.129620
vt 0.500000 0.129620
vt 0.500000 0.250000
vt 0.375000 0.250000
vt 0.625000 0.129620
vt 0.625000 0.250000
vt 0.375000 0.392356
vt 0.500000 0.392356
vt 0.500000 0.500000
vt 0.375000 0.500000
vt 0.625000 0.392356
vt 0.625000 0.500000
vt 0.500000 0.620380
vt 0.375000 0.620380
vt 0.625000 0.620380
vt 0.375000 0.750000
vt 0.500000 0.750000
vt 0.500000 0.857644
vt 0.375000 0.857644
vt 0.625000 0.750000
vt 0.625000 0.857644
vt 0.767356 0.250000
vt 0.767356 0.129620
vt 0.875000 0.129620
vt 0.875000 0.250000
vt 0.125000 0.129620
vt 0.232644 0.129620
vt 0.232644 0.250000
vt 0.125000 0.250000
vt 0.625000 1.000000
vt 0.500000 1.000000
vt 0.375000 1.000000
vt 0.375000 0.000000
vt 0.500000 0.000000
vt 0.625000 0.000000
vt 0.767356 0.000000
vt 0.875000 0.000000
vt 0.125000 0.000000
vt 0.232644 0.000000
vn 0.524072 0.833522 -0.174897
vn 0.575935 0.710576 -0.404203
vn 0.597227 0.702913 -0.386306
vn 0.546504 0.657179 -0.519085
vn 0.422954 0.723042 -0.546186
vn 0.621063 0.722672 -0.303357
vn -0.030050 -0.179125 -0.983367
vn 0.802231 -0.467526 -0.371274
vn -0.035670 -0.990736 0.131036
vn -0.298694 -0.538691 -0.787778
vn 0.551147 0.304774 0.776756
vn 0.308837 -0.005048 0.951102
vn -0.434265 -0.565766 0.700944
vn -0.562901 -0.696146 0.445559
vn -0.542981 -0.705583 0.455329
vn -0.477133 -0.807521 0.346776
vn -0.629249 -0.753485 0.190542
vn -0.430679 -0.761652 0.484152
vn -0.831221 -0.292753 -0.472617
vn -0.913953 -0.118499 0.388133
vn -0.492083 0.866619 -0.082623
vn -0.367865 0.552166 -0.748190
vn -0.364515 0.124809 0.922796
vn 0.024964 0.910943 0.411776
vn 0.354188 0.387882 0.850940
vn 0.363794 0.462948 0.808291
vn 0.153780 0.115956 0.981278
vn 0.149045 0.128869 0.980397
vn -0.429113 -0.444023 -0.786578
vn -0.160442 -0.056380 -0.985434
vn -0.190713 -0.088129 -0.977682
vn -0.467878 -0.416349 -0.779579
vn 0.163657 0.099895 -0.981447
vn 0.696649 0.499991 -0.514480
vn 0.666012 0.499349 0.554147
vn 0.473025 0.597852 0.647164
vn 0.482984 0.555628 0.676759
vn 0.193995 0.979763 0.049308
vn 0.085166 0.947949 -0.306821
vn -0.045776 0.764371 -0.643150
vn 0.021356 0.172393 -0.984797
vn 0.032231 0.157338 -0.987019
vn 0.517026 0.845017 -0.136492
vn 0.459852 0.799560 -0.386316
vn 0.384781 0.715989 -0.582497
vn 0.448316 0.679837 0.580374
vn 0.308366 0.380918 0.871672
vn 0.159650 0.099807 0.982115
vn -0.392517 -0.753786 0.527009
vn -0.435833 -0.797688 0.416826
vn -0.475898 -0.831610 0.286261
vn -0.379580 -0.476964 -0.792732
vn -0.220959 -0.175447 -0.959373
vn 0.000230 0.201438 -0.979501
vn 0.444363 0.733525 -0.514279
vn 0.318258 0.619240 -0.717812
vn 0.344164 0.606596 -0.716654
vn 0.214476 0.580171 -0.785749
vn 0.115875 0.669240 -0.733956
vn 0.417576 0.615900 -0.668055
vn -0.668131 -0.102484 -0.736952
vn 0.292155 -0.579807 -0.760572
vn -0.129471 -0.974090 0.185436
vn -0.817413 -0.419387 -0.394906
vn 0.959095 0.144532 0.243408
vn 0.825844 -0.126943 0.549425
vn 0.001031 -0.523584 0.851973
vn -0.279927 -0.610321 0.741046
vn -0.260452 -0.623895 0.736831
vn -0.296864 -0.728446 0.617445
vn -0.499738 -0.636856 0.587091
vn -0.167525 -0.701422 0.692779
vn -0.980538 -0.102406 0.167509
vn -0.475393 0.024390 0.879435
vn -0.264737 0.945648 0.188847
vn -0.642890 0.660338 -0.388132
vn 0.320322 0.125622 0.938943
vn 0.444354 0.860434 0.249404
vn 0.870930 0.256991 0.418851
vn 0.865622 0.331783 0.374991
vn 0.749186 0.018035 0.662114
vn 0.747437 0.031629 0.663579
vn -0.898264 -0.302753 -0.318532
vn -0.745780 0.041903 -0.664873
vn -0.769867 0.015774 -0.638009
vn -0.918248 -0.269001 -0.290617
vn -0.467855 0.135553 -0.873348
vn 0.302322 0.398210 -0.866043
vn 0.944007 0.329640 -0.013723
vn 0.873439 0.455173 0.172981
vn 0.891595 0.409904 0.192450
vn 0.360070 0.921936 -0.142771
vn 0.049762 0.935174 -0.350677
vn -0.293210 0.802255 -0.520014
vn -0.564683 0.232931 -0.791755
vn -0.560592 0.216328 -0.799336
vn 0.465041 0.743445 -0.480653
vn 0.257639 0.726524 -0.637013
vn 0.062941 0.671810 -0.738045
vn 0.828299 0.544696 0.131253
vn 0.847696 0.257122 0.464004
vn 0.751169 0.001062 0.660109
vn -0.110373 -0.703644 0.701928
vn -0.220035 -0.731185 0.645719
vn -0.338059 -0.748131 0.570979
vn -0.870543 -0.343697 -0.352176
vn -0.797676 -0.065579 -0.599511
vn -0.572059 0.264920 -0.776251
vn 0.499399 0.579804 -0.643761
vn 0.256389 0.618106 -0.743108
vn 0.267207 0.595592 -0.757542
vn 0.132720 0.658277 -0.740983
vn 0.140374 0.756912 -0.638263
vn 0.344283 0.552077 -0.759395
vn -0.843175 0.488239 -0.225119
vn -0.476816 -0.329254 -0.815008
vn -0.571220 -0.799952 0.183807
vn -0.976407 0.174874 0.126679
vn 0.845759 -0.408096 -0.343729
vn 0.733766 -0.678798 -0.028648
vn 0.076468 -0.734554 0.674228
vn -0.214739 -0.636753 0.740562
vn -0.211235 -0.655145 0.725372
vn -0.349980 -0.680308 0.643968
vn -0.448515 -0.502326 0.739258
vn -0.212601 -0.744607 0.632741
vn -0.652703 0.303362 0.694227
vn 0.082399 -0.081705 0.993245
vn 0.453027 0.821152 0.347095
vn -0.227475 0.970576 0.078974
vn 0.709736 -0.383906 0.590670
vn 0.913549 0.406518 -0.013095
vn 0.929227 -0.339978 -0.144747
vn 0.949492 -0.260877 -0.174378
vn 0.815979 -0.566774 0.113782
vn 0.823332 -0.555458 0.116579
vn -0.929700 0.278914 0.240552
vn -0.780086 0.614939 -0.115395
vn -0.799690 0.594959 -0.080742
vn -0.911267 0.305365 0.276307
vn -0.629323 0.639778 -0.441177
vn 0.051094 0.499355 -0.864890
vn 0.828348 -0.157643 -0.537577
vn 0.936414 -0.090997 -0.338894
vn 0.931171 -0.143126 -0.335314
vn 0.717009 0.636931 -0.283227
vn 0.420638 0.864500 -0.275145
vn 0.034336 0.974190 -0.223103
vn -0.602356 0.733568 -0.314716
vn -0.612589 0.720948 -0.323987
vn 0.534235 0.566263 -0.627645
vn 0.313426 0.703719 -0.637608
vn 0.103986 0.784627 -0.611186
vn 0.939055 0.017474 -0.343324
vn 0.933606 -0.345623 -0.094473
vn 0.806581 -0.580749 0.110260
vn -0.170883 -0.775794 0.607407
vn -0.286633 -0.727814 0.622999
vn -0.410189 -0.660698 0.628668
vn -0.949594 0.245161 0.195366
vn -0.848714 0.527570 -0.036815
vn -0.581895 0.757324 -0.296409
vn -0.601493 0.621174 -0.502344
vn -0.760810 0.578272 -0.294568
vn -0.767936 0.558243 -0.314068
vn -0.795356 0.582029 -0.169267
vn -0.713423 0.689662 -0.124072
vn -0.743556 0.538231 -0.396778
vn -0.503174 0.203174 0.839962
vn -0.830965 -0.538893 0.138172
vn 0.185495 -0.902578 0.388516
vn -0.142035 -0.093695 0.985417
vn -0.053693 -0.189562 -0.980400
vn 0.269674 -0.443889 -0.854540
vn 0.795029 -0.603372 -0.062218
vn 0.771626 -0.584618 0.250630
vn 0.761298 -0.602859 0.238717
vn 0.655325 -0.674943 0.339118
vn 0.690609 -0.522356 0.500203
vn 0.688813 -0.698854 0.192715
vn 0.452970 0.183148 0.872511
vn 0.982349 0.056167 0.178427
vn 0.289395 0.948797 -0.126632
vn -0.154765 0.869969 0.468190
vn 0.801526 -0.100440 -0.589464
vn 0.129969 0.642856 -0.754881
vn 0.143615 -0.078961 -0.986479
vn 0.105759 -0.001173 -0.994391
vn 0.404731 -0.298103 -0.864481
vn 0.407091 -0.284943 -0.867805
vn -0.041192 0.031322 0.998660
vn -0.406530 0.353928 0.842299
vn -0.374470 0.333244 0.865287
vn -0.007508 0.065708 0.997811
vn -0.686277 0.383619 0.617949
vn -0.904081 0.393775 -0.166071
vn -0.288321 0.022620 -0.957267
vn -0.085214 0.138710 -0.986660
vn -0.073569 0.087949 -0.993405
vn -0.216238 0.777062 -0.591115
vn -0.320025 0.911548 -0.258195
vn -0.381738 0.913296 0.142009
vn -0.576231 0.494713 0.650552
vn -0.585208 0.478773 0.654453
vn -0.575405 0.619861 -0.533556
vn -0.662162 0.687687 -0.297704
vn -0.701228 0.708871 -0.076035
vn -0.108522 0.242344 -0.964102
vn 0.193650 -0.077493 -0.978005
vn 0.401679 -0.314450 -0.860102
vn 0.680176 -0.719679 0.139361
vn 0.658938 -0.704751 0.262920
vn 0.622905 -0.674888 0.395621
vn -0.082895 -0.011488 0.996492
vn -0.331908 0.260129 0.906736
vn -0.558235 0.525153 0.642331
vn 0.344351 0.895010 -0.283514
vn 0.557655 0.752305 -0.350795
vn 0.562338 0.760931 -0.323667
vn 0.623183 0.661595 -0.417054
vn 0.540669 0.650935 -0.532880
vn 0.520266 0.811921 -0.264779
vn 0.670527 -0.439562 -0.597645
vn 0.910245 -0.117567 0.397029
vn 0.064631 -0.808926 0.584347
vn 0.410735 -0.812026 -0.414622
vn -0.179688 0.732064 0.657110
vn -0.415231 0.407669 0.813259
vn -0.680949 -0.481318 0.551944
vn -0.578632 -0.722507 0.378377
vn -0.569163 -0.718288 0.400144
vn -0.430619 -0.802993 0.412032
vn -0.444901 -0.873168 0.199098
vn -0.497648 -0.704257 0.506329
vn -0.228011 -0.768623 -0.597687
vn -0.896492 -0.420585 -0.139321
vn -0.454377 0.470241 -0.756581
vn 0.138186 0.079131 -0.987240
vn -0.903894 0.191416 0.382539
vn -0.422255 0.889239 -0.175939
vn -0.386080 0.729677 0.564370
vn -0.364052 0.785046 0.501167
vn -0.568771 0.444371 0.692123
vn -0.573906 0.452696 0.682421
vn 0.299102 -0.793875 -0.529435
vn 0.556051 -0.398825 -0.729209
vn 0.534789 -0.437464 -0.722929
vn 0.261542 -0.787009 -0.558760
vn 0.758363 -0.114412 -0.641713
vn 0.756366 0.602046 -0.255835
vn 0.017309 0.886533 0.462342
vn -0.201629 0.904174 0.376584
vn -0.206731 0.881833 0.423830
vn -0.069820 0.924813 -0.373961
vn 0.096624 0.747176 -0.657565
vn 0.261176 0.437707 -0.860348
vn 0.645223 -0.121680 -0.754242
vn 0.657246 -0.129779 -0.742418
vn 0.311443 0.912071 -0.266703
vn 0.446155 0.777120 -0.443880
vn 0.538850 0.616891 -0.573661
vn -0.189326 0.942413 0.275706
vn -0.431695 0.708091 0.558791
vn -0.562209 0.433861 0.704050
vn -0.500376 -0.667704 0.551177
vn -0.449692 -0.755696 0.476131
vn -0.384788 -0.839521 0.383591
vn 0.344788 -0.799840 -0.491302
vn 0.516456 -0.519620 -0.680638
vn 0.621246 -0.105842 -0.776435
s 1
g Wings
usemtl Blue_ShaderSG
f 19/30/1 20/31/2 5/5/3 4/4/4
f 20/31/2 21/32/5 6/6/6 5/5/3
s 2
f 13/21/7 14/22/8 8/8/9 7/7/10
f 14/22/8 15/23/11 9/9/12 8/8/9
s 3
f 7/7/13 8/8/14 24/36/15 25/38/16
f 8/8/14 9/9/17 23/34/18 24/36/15
s 4
f 10/10/19 11/11/20 17/27/21 18/29/22
f 11/11/20 12/12/23 16/25/24 17/27/21
s 5
f 15/24/25 22/33/26 23/35/27 9/17/28
s 6
f 25/37/29 26/39/30 13/20/31 7/19/32
s 2
f 4/4/33 5/5/34 14/22/8 13/21/7
f 5/5/34 6/6/35 15/23/11 14/22/8
s 5
f 21/32/36 22/33/26 15/24/25 6/6/37
s 4
f 17/27/21 16/25/24 3/15/38 2/14/39
f 18/29/22 17/27/21 2/14/39 1/13/40
s 6
f 13/20/31 26/39/30 19/30/41 4/4/42
s 1
f 1/1/43 2/2/44 20/31/2 19/30/1
f 2/2/44 3/3/45 21/32/5 20/31/2
s 5
f 3/3/46 16/26/47 22/33/26 21/32/36
f 23/35/27 22/33/26 16/26/47 12/16/48
s 3
f 24/36/15 23/34/18 12/12/49 11/11/50
f 25/38/16 24/36/15 11/11/50 10/10/51
s 6
f 10/18/52 18/28/53 26/39/30 25/37/29
f 19/30/41 26/39/30 18/28/53 1/1/54
s 7
f 45/40/55 46/41/56 31/42/57 30/43/58
f 46/41/56 47/44/59 32/45/60 31/42/57
s 8
f 39/46/61 40/47/62 34/48/63 33/49/64
f 40/47/62 41/50/65 35/51/66 34/48/63
s 9
f 33/49/67 34/48/68 50/52/69 51/53/70
f 34/48/68 35/51/71 49/54/72 50/52/69
s 10
f 36/55/73 37/56/74 43/57/75 44/58/76
f 37/56/74 38/59/77 42/60/78 43/57/75
s 11
f 41/61/79 48/62/80 49/63/81 35/64/82
s 12
f 51/65/83 52/66/84 39/67/85 33/68/86
s 8
f 30/43/87 31/42/88 40/47/62 39/46/61
f 31/42/88 32/45/89 41/50/65 40/47/62
s 11
f 47/44/90 48/62/80 41/61/79 32/45/91
s 10
f 43/57/75 42/60/78 29/69/92 28/70/93
f 44/58/76 43/57/75 28/70/93 27/71/94
s 12
f 39/67/85 52/66/84 45/40/95 30/43/96
s 7
f 27/72/97 28/73/98 46/41/56 45/40/55
f 28/73/98 29/74/99 47/44/59 46/41/56
s 11
f 29/74/100 42/75/101 48/62/80 47/44/90
f 49/63/81 48/62/80 42/75/101 38/76/102
s 9
f 50/52/69 49/54/72 38/59/103 37/56/104
f 51/53/70 50/52/69 37/56/104 36/55/105
s 12
f 36/77/106 44/78/107 52/66/84 51/65/83
f 45/40/95 52/66/84 44/78/107 27/72/108
s 13
f 71/79/109 72/80/110 57/81/111 56/82/112
f 72/80/110 73/83/113 58/84/114 57/81/111
s 14
f 65/85/115 66/86/116 60/87/117 59/88/118
f 66/86/116 67/89/119 61/90/120 60/87/117
s 15
f 59/88/121 60/87/122 76/91/123 77/92/124
f 60/87/122 61/90/125 75/93/126 76/91/123
s 16
f 62/94/127 63/95/128 69/96/129 70/97/130
f 63/95/128 64/98/131 68/99/132 69/96/129
s 17
f 67/100/133 74/101/134 75/102/135 61/103/136
s 18
f 77/104/137 78/105/138 65/106/139 59/107/140
s 14
f 56/82/141 57/81/142 66/86/116 65/85/115
f 57/81/142 58/84/143 67/89/119 66/86/116
s 17
f 73/83/144 74/101/134 67/100/133 58/84/145
s 16
f 69/96/129 68/99/132 55/108/146 54/109/147
f 70/97/130 69/96/129 54/109/147 53/110/148
s 18
f 65/106/139 78/105/138 71/79/149 56/82/150
s 13
f 53/111/151 54/112/152 72/80/110 71/79/109
f 54/112/152 55/113/153 73/83/113 72/80/110
s 17
f 55/113/154 68/114/155 74/101/134 73/83/144
f 75/102/135 74/101/134 68/114/155 64/115/156
s 15
f 76/91/123 75/93/126 64/98/157 63/95/158
f 77/92/124 76/91/123 63/95/158 62/94/159
s 18
f 62/116/160 70/117/161 78/105/138 77/104/137
f 71/79/149 78/105/138 70/117/161 53/111/162
s 19
f 97/118/163 98/119/164 83/120/165 82/121/166
f 98/119/164 99/122/167 84/123/168 83/120/165
s 20
f 91/124/169 92/125/170 86/126/171 85/127/172
f 92/125/170 93/128/173 87/129/174 86/126/171
s 21
f 85/127/175 86/126/176 102/130/177 103/131/178
f 86/126/176 87/129/179 101/132/180 102/130/177
s 22
f 88/133/181 89/134/182 95/135/183 96/136/184
f 89/134/182 90/137/185 94/138/186 95/135/183
s 23
f 93/139/187 100/140/188 101/141/189 87/142/190
s 24
f 103/143/191 104/144/192 91/145/193 85/146/194
s 20
f 82/121/195 83/120/196 92/125/170 91/124/169
f 83/120/196 84/123/197 93/128/173 92/125/170
s 23
f 99/122/198 100/140/188 93/139/187 84/123/199
s 22
f 95/135/183 94/138/186 81/147/200 80/148/201
f 96/136/184 95/135/183 80/148/201 79/149/202
s 24
f 91/145/193 104/144/192 97/118/203 82/121/204
s 19
f 79/150/205 80/151/206 98/119/164 97/118/163
f 80/151/206 81/152/207 99/122/167 98/119/164
s 23
f 81/152/208 94/153/209 100/140/188 99/122/198
f 101/141/189 100/140/188 94/153/209 90/154/210
s 21
f 102/130/177 101/132/180 90/137/211 89/134/212
f 103/131/178 102/130/177 89/134/212 88/133/213
s 24
f 88/155/214 96/156/215 104/144/192 103/143/191
f 97/118/203 104/144/192 96/156/215 79/150/216
s 25
f 123/157/217 124/158/218 109/159/219 108/160/220
f 124/158/218 125/161/221 110/162/222 109/159/219
s 26
f 117/163/223 118/164/224 112/165/225 111/166/226
f 118/164/224 119/167/227 113/168/228 112/165/225
s 27
f 111/166/229 112/165/230 128/169/231 129/170/232
f 112/165/230 113/168/233 127/171/234 128/169/231
s 28
f 114/172/235 115/173/236 121/174/237 122/175/238
f 115/173/236 116/176/239 120/177/240 121/174/237
s 29
f 119/178/241 126/179/242 127/180/243 113/181/244
s 30
f 129/182/245 130/183/246 117/184/247 111/185/248
s 26
f 108/160/249 109/159/250 118/164/224 117/163/223
f 109/159/250 110/162/251 119/167/227 118/164/224
s 29
f 125/161/252 126/179/242 119/178/241 110/162/253
s 28
f 121/174/237 120/177/240 107/186/254 106/187/255
f 122/175/238 121/174/237 106/187/255 105/188/256
s 30
f 117/184/247 130/183/246 123/157/257 108/160/258
s 25
f 105/189/259 106/190/260 124/158/218 123/157/217
f 106/190/260 107/191/261 125/161/221 124/158/218
s 29
f 107/191/262 120/192/263 126/179/242 125/161/252
f 127/180/243 126/179/242 120/192/263 116/193/264
s 27
f 128/169/231 127/171/234 116/176/265 115/173/266
f 129/170/232 128/169/231 115/173/266 114/172/267
s 30
f 114/194/268 122/195/269 130/183/246 129/182/245
f 123/157/257 130/183/246 122/195/269 105/189/270
